# xmcd
#
# Track frame offsets:
#	150
#	17734
#	36406
#	55394
#	86003
#	103861
#	125889
#	155748
#	178079
#	209837
#	232108
#	250536
#
# Disc length: 3796 seconds
#
# Revision: 1
# Processed by: cddbd v1.5.1PL0 Copyright (c) Steve Scherf et al.
# Submitted via: audiograbber 1.83.01
#
DISCID=b40ed20c
DTITLE=Gary Moore - Ballads and Blues
DYEAR=1900
DGENRE=
TTITLE0=Always gonna love you
TTITLE1=Still got the Blues
TTITLE2=Empty Rooms
TTITLE3=Parisienne Walkaways
TTITLE4=One Day
TTITLE5=Seperate Ways
TTITLE6=Story of the Blues
TTITLE7=Falling in Love with You
TTITLE8=Jumpin at shadows
TTITLE9=Johnny Boy
TTITLE10=Unknown
TTITLE11=Unknown
EXTD=
EXTT0=
EXTT1=
EXTT2=
EXTT3=
EXTT4=
EXTT5=
EXTT6=
EXTT7=
EXTT8=
EXTT9=
EXTT10=
EXTT11=
PLAYORDER=
